<svg id="visual" viewBox="0 0 900 600" width="900" height="600" xmlns="http://www.w3.org/2000/svg" xmlns:xlink="http://www.w3.org/1999/xlink" version="1.1"><rect x="0" y="0" width="900" height="600" fill="#fff"></rect><path d="M0 152L21.5 145.7C43 139.3 86 126.7 128.8 122.8C171.7 119 214.3 124 257.2 121.7C300 119.3 343 109.7 385.8 107.3C428.7 105 471.3 110 514.2 118.3C557 126.7 600 138.3 642.8 134.5C685.7 130.7 728.3 111.3 771.2 102.7C814 94 857 96 878.5 97L900 98L900 0L878.5 0C857 0 814 0 771.2 0C728.3 0 685.7 0 642.8 0C600 0 557 0 514.2 0C471.3 0 428.7 0 385.8 0C343 0 300 0 257.2 0C214.3 0 171.7 0 128.8 0C86 0 43 0 21.5 0L0 0Z" fill="#cd0000"></path><path d="M0 74L21.5 75C43 76 86 78 128.8 78.2C171.7 78.3 214.3 76.7 257.2 81.3C300 86 343 97 385.8 97.5C428.7 98 471.3 88 514.2 80.5C557 73 600 68 642.8 65.5C685.7 63 728.3 63 771.2 66C814 69 857 75 878.5 78L900 81L900 0L878.5 0C857 0 814 0 771.2 0C728.3 0 685.7 0 642.8 0C600 0 557 0 514.2 0C471.3 0 428.7 0 385.8 0C343 0 300 0 257.2 0C214.3 0 171.7 0 128.8 0C86 0 43 0 21.5 0L0 0Z" fill="#8f1208"></path><path d="M0 63L21.5 60.2C43 57.3 86 51.7 128.8 53.8C171.7 56 214.3 66 257.2 69.2C300 72.3 343 68.7 385.8 65.3C428.7 62 471.3 59 514.2 56.5C557 54 600 52 642.8 52.3C685.7 52.7 728.3 55.3 771.2 59.5C814 63.7 857 69.3 878.5 72.2L900 75L900 0L878.5 0C857 0 814 0 771.2 0C728.3 0 685.7 0 642.8 0C600 0 557 0 514.2 0C471.3 0 428.7 0 385.8 0C343 0 300 0 257.2 0C214.3 0 171.7 0 128.8 0C86 0 43 0 21.5 0L0 0Z" fill="#551308"></path></svg>